# Blender v2.83.2 OBJ File: 'Meja.blend'
# www.blender.org
mtllib Meja.mtl
o Meja
v -4.883614 -0.552625 -3.253106
v -4.883614 0.024005 -3.253106
v 4.871420 -0.552625 -3.253106
v 4.871420 0.024005 -3.253106
v -4.883614 -0.552625 -3.742268
v -4.883614 0.024005 -3.742268
v 4.871420 -0.552625 -3.742268
v 4.871420 0.024005 -3.742268
v -4.883614 -0.552625 3.253106
v -4.883614 0.024005 3.253106
v 4.871420 -0.552625 3.253106
v 4.871420 0.024005 3.253106
v -4.883614 -0.552625 3.742268
v -4.883614 0.024005 3.742268
v 4.871420 -0.552625 3.742268
v 4.871420 0.024005 3.742268
v -5.308578 -0.552625 -3.382077
v -5.308578 0.024005 -3.382077
v -5.308578 -0.552625 3.417419
v -5.308578 0.024005 3.417419
v -4.819417 -0.552625 -3.382077
v -4.819417 0.024005 -3.382077
v -4.819417 -0.552625 3.417419
v -4.819417 0.024005 3.417419
v 5.308578 -0.552625 -3.382077
v 5.308578 0.024005 -3.382077
v 5.308578 -0.552625 3.417419
v 5.308578 0.024005 3.417419
v 4.819417 -0.552625 -3.382077
v 4.819417 0.024005 -3.382077
v 4.819417 -0.552625 3.417419
v 4.819417 0.024005 3.417419
v -5.404763 -4.721838 -3.157856
v -5.404763 0.024005 -3.157856
v -5.404763 -4.721838 -3.823571
v -5.404763 0.024005 -3.823571
v -4.739048 -4.721838 -3.157856
v -4.739048 0.024005 -3.157856
v -4.739048 -4.721838 -3.823571
v -4.739048 0.024005 -3.823571
v 5.404763 -4.721838 -3.157856
v 5.404763 0.024005 -3.157856
v 5.404763 -4.721838 -3.823571
v 5.404763 0.024005 -3.823571
v 4.739048 -4.721838 -3.157856
v 4.739048 0.024005 -3.157856
v 4.739048 -4.721838 -3.823571
v 4.739048 0.024005 -3.823571
v -5.404763 -4.721838 3.157856
v -5.404763 0.024005 3.157856
v -5.404763 -4.721838 3.823571
v -5.404763 0.024005 3.823571
v -4.739048 -4.721838 3.157856
v -4.739048 0.024005 3.157856
v -4.739048 -4.721838 3.823571
v -4.739048 0.024005 3.823571
v 5.404763 -4.721838 3.157856
v 5.404763 0.024005 3.157856
v 5.404763 -4.721838 3.823571
v 5.404763 0.024005 3.823571
v 4.739048 -4.721838 3.157856
v 4.739048 0.024005 3.157856
v 4.739048 -4.721838 3.823571
v 4.739048 0.024005 3.823571
v 5.848087 -0.248119 -4.114753
v 5.848087 -0.248119 4.114753
v -5.848088 -0.248119 4.114752
v -5.848085 -0.248119 -4.114755
v 5.848090 0.248119 -4.114751
v 5.848083 0.248119 4.114756
v -5.848089 0.248119 4.114751
v -5.848087 0.248119 -4.114753
vt 0.130522 0.402438
vt 0.130522 0.446063
vt 0.868556 0.446063
vt 0.868556 0.402438
vt 0.868556 0.402438
vt 0.868556 0.446063
vt 0.130522 0.446063
vt 0.130522 0.402438
vt 0.807130 0.705099
vt 0.807130 0.735940
vt 0.192101 0.735940
vt 0.192101 0.705099
vt 0.130522 0.402438
vt 0.868556 0.402438
vt 0.868556 0.446064
vt 0.130522 0.446064
vt 0.868556 0.402438
vt 0.130522 0.402438
vt 0.130522 0.446064
vt 0.868556 0.446064
vt 0.807130 0.294901
vt 0.192101 0.294901
vt 0.192101 0.264060
vt 0.807130 0.264060
vt 0.847219 0.368581
vt 0.847219 0.398877
vt 0.489977 0.398877
vt 0.489977 0.368581
vt 0.489977 0.368581
vt 0.489977 0.398877
vt 0.847219 0.398877
vt 0.847219 0.368581
vt 0.282092 0.615771
vt 0.282092 0.600899
vt 0.488829 0.600899
vt 0.488829 0.615771
vt 0.847219 0.368581
vt 0.489977 0.368581
vt 0.489977 0.398877
vt 0.847219 0.398877
vt 0.489977 0.368581
vt 0.847219 0.368581
vt 0.847219 0.398877
vt 0.489977 0.398877
vt 0.282092 0.292960
vt 0.488829 0.292960
vt 0.488829 0.307832
vt 0.282092 0.307832
vt 0.375328 0.210677
vt 0.624672 0.210677
vt 0.624672 0.175701
vt 0.375328 0.175701
vt 0.332478 0.795861
vt 0.667522 0.795861
vt 0.667522 0.748863
vt 0.332478 0.748863
vt 0.375328 0.175701
vt 0.624672 0.175701
vt 0.624672 0.210677
vt 0.375328 0.210677
vt 0.332478 0.748863
vt 0.667522 0.748863
vt 0.667522 0.795861
vt 0.332478 0.795861
vt 0.802521 0.716728
vt 0.790273 0.681369
vt 0.754914 0.693616
vt 0.767161 0.728976
vt 0.375328 0.210677
vt 0.375328 0.175701
vt 0.624672 0.175701
vt 0.624672 0.210677
vt 0.332478 0.032736
vt 0.332478 0.079734
vt 0.667522 0.079734
vt 0.667522 0.032736
vt 0.375328 0.175701
vt 0.375328 0.210677
vt 0.624672 0.210677
vt 0.624672 0.175701
vt 0.332478 0.079734
vt 0.332478 0.032736
vt 0.667522 0.032736
vt 0.667522 0.079734
vt 0.603654 0.142585
vt 0.568295 0.154832
vt 0.580542 0.190191
vt 0.615901 0.177944
vt 0.375328 0.542501
vt 0.375328 0.577477
vt 0.624672 0.577477
vt 0.624672 0.542501
vt 0.332478 0.795861
vt 0.332478 0.748863
vt 0.667522 0.748863
vt 0.667522 0.795861
vt 0.375328 0.577477
vt 0.375328 0.542501
vt 0.624672 0.542501
vt 0.624672 0.577477
vt 0.332478 0.748863
vt 0.332478 0.795861
vt 0.667522 0.795861
vt 0.667522 0.748863
vt 0.396346 0.857415
vt 0.431705 0.845168
vt 0.419458 0.809809
vt 0.384098 0.822056
vt 0.375328 0.542501
vt 0.624672 0.542501
vt 0.624672 0.577477
vt 0.375328 0.577477
vt 0.332478 0.032736
vt 0.667522 0.032736
vt 0.667522 0.079734
vt 0.332478 0.079734
vt 0.375328 0.577477
vt 0.624672 0.577477
vt 0.624672 0.542501
vt 0.375328 0.542501
vt 0.332478 0.079734
vt 0.667522 0.079734
vt 0.667522 0.032736
vt 0.332478 0.032736
vt 0.197479 0.283272
vt 0.209727 0.318631
vt 0.245086 0.306384
vt 0.232838 0.271024
vt 0.999900 0.000100
vt 0.999900 0.999900
vt 0.000100 0.999900
vt 0.000100 0.000100
vt 0.999900 0.999899
vt 0.000100 0.999900
vt 0.000100 0.000100
vt 0.999899 0.000100
vt 0.422763 0.000100
vt 0.577237 0.000100
vt 0.577237 0.999900
vt 0.422763 0.999900
vt 0.987449 0.474581
vt 0.987449 0.525419
vt 0.012551 0.525419
vt 0.012551 0.474581
vt 0.614159 0.999900
vt 0.385841 0.999900
vt 0.385841 0.000100
vt 0.614159 0.000100
vt 0.697957 0.295008
vt 0.697957 0.333308
vt 0.277264 0.333308
vt 0.277264 0.295008
vn 0.0000 0.0000 -1.0000
vn 0.0000 0.0000 1.0000
vn 0.0000 1.0000 0.0000
vn 1.0000 0.0000 0.0000
vn -1.0000 0.0000 0.0000
vn 0.0000 -1.0000 0.0000
usemtl Kayu
s off
f 1/1/1 2/2/1 4/3/1 3/4/1
f 7/5/2 8/6/2 6/7/2 5/8/2
f 3/9/3 7/10/3 5/11/3 1/12/3
f 9/13/2 11/14/2 12/15/2 10/16/2
f 15/17/1 13/18/1 14/19/1 16/20/1
f 11/21/3 9/22/3 13/23/3 15/24/3
f 17/25/4 18/26/4 20/27/4 19/28/4
f 23/29/5 24/30/5 22/31/5 21/32/5
f 19/33/3 23/34/3 21/35/3 17/36/3
f 25/37/5 27/38/5 28/39/5 26/40/5
f 31/41/4 29/42/4 30/43/4 32/44/4
f 27/45/3 25/46/3 29/47/3 31/48/3
f 33/49/5 34/50/5 36/51/5 35/52/5
f 35/53/1 36/54/1 40/55/1 39/56/1
f 39/57/4 40/58/4 38/59/4 37/60/4
f 37/61/2 38/62/2 34/63/2 33/64/2
f 35/65/6 39/66/6 37/67/6 33/68/6
f 41/69/4 43/70/4 44/71/4 42/72/4
f 43/73/1 47/74/1 48/75/1 44/76/1
f 47/77/5 45/78/5 46/79/5 48/80/5
f 45/81/2 41/82/2 42/83/2 46/84/2
f 43/85/6 41/86/6 45/87/6 47/88/6
f 49/89/5 51/90/5 52/91/5 50/92/5
f 51/93/2 55/94/2 56/95/2 52/96/2
f 55/97/4 53/98/4 54/99/4 56/100/4
f 53/101/1 49/102/1 50/103/1 54/104/1
f 51/105/6 49/106/6 53/107/6 55/108/6
f 57/109/4 58/110/4 60/111/4 59/112/4
f 59/113/2 60/114/2 64/115/2 63/116/2
f 63/117/5 64/118/5 62/119/5 61/120/5
f 61/121/1 62/122/1 58/123/1 57/124/1
f 59/125/6 63/126/6 61/127/6 57/128/6
f 65/129/6 66/130/6 67/131/6 68/132/6
f 69/133/3 72/134/3 71/135/3 70/136/3
f 65/137/4 69/138/4 70/139/4 66/140/4
f 66/141/2 70/142/2 71/143/2 67/144/2
f 67/145/5 71/146/5 72/147/5 68/148/5
f 69/149/1 65/150/1 68/151/1 72/152/1
